#!OML:ASF I:\Actors\actors\Patient Classification 2\Patient 1\Session 1\actor1.ASF
:FULLY-SPECIFIED
:DEGREES
374
root -0.470927 18.7455 5.37189 3.18078 -5.38643 -2.88892
lowerback 5.19048 -1.41485 -2.04521
upperback 1.78949 -1.99669 -0.735741
thorax -1.02494 -0.999286 0.509688
lowerneck -14.565 0.173688 4.20939
upperneck 33.4442 -1.79705 1.85416
head 13.7854 -0.0426439 -0.292604
rclavicle 3.53837e-014 -7.95139e-015
rhumerus -16.0246 45.5924 -88.1888
rradius 94.9519
rwrist 2.04595
rhand -10.9006 -60.9953
rfingers 7.12502
rthumb 15.1162 -629.577
lclavicle 3.53837e-014 -7.95139e-015
lhumerus 9.38603 -36.4508 47.2377
lradius 73.7505
lwrist 13.1576
lhand -1.0398 -42.4076
lfingers 7.12502
lthumb 24.5941 -13.9675
rfemur 0 0 0
rtibia 0
rfoot 0 0
rtoes 0
lfemur -6.26132 -5.38122 -12.0981
ltibia 22.6949
lfoot -24.7098 17.0869
ltoes -53.7274
375
root -0.478126 18.7467 5.37396 3.27173 -5.85201 -2.5776
lowerback 5.06384 -1.31834 -2.35026
upperback 1.78522 -1.88106 -0.825805
thorax -0.954398 -0.942641 0.577847
lowerneck -14.4963 0.237297 4.30031
upperneck 33.3405 -1.6949 1.77456
head 13.724 -0.0010429 -0.324253
rclavicle 1.33186e-014 6.36111e-015
rhumerus -16.9016 45.9475 -89.4312
rradius 95.4047
rwrist 1.73143
rhand -9.35273 -61.4586
rfingers 7.12502
rthumb 16.6069 -629.232
lclavicle 1.33186e-014 6.36111e-015
lhumerus 9.42761 -36.0928 46.1838
lradius 74.0003
lwrist 13.5254
lhand -1.15091 -42.4769
lfingers 7.12502
lthumb 24.4876 -14.0223
rfemur 0 0 0
rtibia 0
rfoot 0 0
rtoes 0
lfemur -6.18453 -5.32938 -12.4895
ltibia 22.4859
lfoot -24.6899 17.6778
ltoes -53.6795
376
root -0.524095 18.7476 5.38601 3.30192 -6.4037 -2.67998
lowerback 4.82022 -1.17289 -2.83652
upperback 1.85662 -1.69854 -0.647406
thorax -0.729943 -0.856593 1.01538
lowerneck -14.4273 0.271101 4.33411
upperneck 33.2328 -1.59528 1.62514
head 13.6596 0.0228027 -0.374138
rclavicle 4.53229e-014 -1.43125e-014
rhumerus -17.3427 46.4274 -90.1848
rradius 95.5827
rwrist 1.3286
rhand -7.60425 -61.9117
rfingers 7.12502
rthumb 18.2896 -628.928
lclavicle 4.53229e-014 -1.43125e-014
lhumerus 9.39012 -35.7753 45.3313
lradius 74.1148
lwrist 13.7827
lhand -1.33654 -42.4496
lfingers 7.12502
lthumb 24.3096 -13.9711
rfemur 0 0 0
rtibia 0
rfoot 0 0
rtoes 0
lfemur -6.03021 -5.1581 -12.272
ltibia 22.3848
lfoot -24.8262 17.9498
ltoes -53.5252
377
root -0.545318 18.7456 5.38954 3.2114 -6.74477 -2.94013
lowerback 4.92446 -1.08002 -2.74666
upperback 1.91347 -1.57203 -0.515752
thorax -0.733249 -0.794103 1.09531
lowerneck -14.4564 0.271854 4.19991
upperneck 33.2598 -1.56372 1.64316
head 13.6783 0.022708 -0.338744
rclavicle 3.6477e-014 -5.56597e-015
rhumerus -17.4156 46.8405 -90.502
rradius 95.457
rwrist 0.930413
rhand -7.75752 -61.7872
rfingers 7.12502
rthumb 18.1421 -629.039
lclavicle 3.6477e-014 -5.56597e-015
lhumerus 9.45684 -35.5886 44.7464
lradius 73.9407
lwrist 13.7631
lhand -1.39253 -42.3863
lfingers 7.12502
lthumb 24.2559 -13.9006
rfemur 0 0 0
rtibia 0
rfoot 0 0
rtoes 0
lfemur -5.72709 -5.12418 -11.9537
ltibia 22.2768
lfoot -25.1029 17.9671
ltoes -53.4539
378
root -0.526615 18.7403 5.38146 3.02933 -6.75047 -3.24633
lowerback 5.41525 -1.10166 -1.97831
upperback 1.91899 -1.5779 -0.518642
thorax -1.02251 -0.791712 0.673985
lowerneck -14.521 0.270398 4.08976
upperneck 33.3711 -1.56221 1.70243
head 13.7426 0.0204016 -0.295647
rclavicle 2.88238e-014 -5.56597e-015
rhumerus -17.7166 47.0527 -90.8991
rradius 95.2012
rwrist 0.774054
rhand -7.96604 -61.5693
rfingers 7.12502
rthumb 17.9415 -629.238
lclavicle 2.88238e-014 -5.56597e-015
lhumerus 9.55564 -35.5854 44.4139
lradius 73.5577
lwrist 13.4827
lhand -1.38129 -42.3602
lfingers 7.12502
lthumb 24.2667 -13.8759
rfemur 0 0 0
rtibia 0
rfoot 0 0
rtoes 0
lfemur -5.47749 -4.96376 -11.7126
ltibia 22.2826
lfoot -24.949 18.0178
ltoes -53.3956
379
root -0.551587 18.7432 5.38688 3.1193 -6.92108 -2.84836
lowerback 5.2401 -1.02052 -2.63982
upperback 1.88165 -1.49962 -0.553719
thorax -0.948598 -0.754517 1.00018
lowerneck -14.5816 0.259431 4.06238
upperneck 33.4591 -1.56528 1.66768
head 13.7941 0.0133587 -0.305179
rclavicle 3.56818e-014 3.81667e-014
rhumerus -17.7316 47.1539 -90.873
rradius 94.73
rwrist 0.573618
rhand -7.7445 -61.3428
rfingers 7.12502
rthumb 18.1547 -629.484
lclavicle 3.56818e-014 3.81667e-014
lhumerus 9.594 -35.6999 44.4464
lradius 73.0396
lwrist 13.0637
lhand -1.46786 -42.4034
lfingers 7.12502
lthumb 24.1837 -13.908
rfemur 0 0 0
rtibia 0
rfoot 0 0
rtoes 0
lfemur -5.63784 -4.94158 -12.0956
ltibia 22.3372
lfoot -24.9719 18.2642
ltoes -53.5004
380
root -0.547446 18.7421 5.38581 3.02808 -6.78359 -3.07966
lowerback 5.48767 -1.05453 -2.15293
upperback 1.88559 -1.52711 -0.540179
thorax -1.09434 -0.765683 0.748634
lowerneck -14.6529 0.229122 4.10415
upperneck 33.4877 -1.59563 1.57709
head 13.8204 -0.00524411 -0.353529
rclavicle -1.76918e-014 -1.03368e-014
rhumerus -17.8291 46.9888 -90.7723
rradius 94.1719
rwrist 0.630117
rhand -7.13465 -61.1391
rfingers 7.12502
rthumb 18.7413 -629.744
lclavicle -1.76918e-014 -1.03368e-014
lhumerus 9.64459 -35.8888 44.8796
lradius 72.4024
lwrist 12.6141
lhand -1.60974 -42.264
lfingers 7.12502
lthumb 24.0477 -13.7506
rfemur 0 0 0
rtibia 0
rfoot 0 0
rtoes 0
lfemur -5.54488 -5.00631 -11.849
ltibia 22.3709
lfoot -25.0003 18.1762
ltoes -53.435
381
root -0.542063 18.74 5.38608 2.92958 -6.55687 -3.27829
lowerback 5.68977 -1.11161 -1.66198
upperback 1.90439 -1.5814 -0.551357
thorax -1.20004 -0.791215 0.470069
lowerneck -14.7703 0.199388 4.14726
upperneck 33.509 -1.62035 1.46667
head 13.8532 -0.0235012 -0.409322
rclavicle 1.44119e-014 9.54166e-015
rhumerus -18.222 46.5697 -90.8139
rradius 93.5839
rwrist 0.94851
rhand -6.46427 -60.8735
rfingers 7.12502
rthumb 19.386 -449.927
lclavicle 1.44119e-014 9.54166e-015
lhumerus 9.51503 -36.0377 45.8346
lradius 71.7953
lwrist 12.1534
lhand -1.72251 -41.9549
lfingers 7.12502
lthumb 23.9395 -13.4273
rfemur 0 0 0
rtibia 0
rfoot 0 0
rtoes 0
lfemur -5.41404 -5.00581 -11.6272
ltibia 22.2885
lfoot -24.8333 18.024
ltoes -53.5064
382
root -0.55609 18.741 5.39093 2.96962 -6.35317 -3.07443
lowerback 5.54936 -1.14316 -1.89744
upperback 1.9183 -1.63324 -0.595983
thorax -1.10108 -0.818207 0.555909
lowerneck -14.9773 0.178063 4.10591
upperneck 33.6013 -1.6261 1.38842
head 13.9385 -0.0376651 -0.43488
rclavicle -5.96354e-016 -4.77083e-015
rhumerus -18.0993 46.107 -90.3317
rradius 92.8104
rwrist 1.11112
rhand -6.07781 -60.4842
rfingers 7.12502
rthumb 19.7576 -449.5
lclavicle -5.96354e-016 -4.77083e-015
lhumerus 9.16033 -36.1205 47.1933
lradius 71.3095
lwrist 11.7112
lhand -1.78975 -41.8804
lfingers 7.12502
lthumb 23.875 -13.3443
rfemur 0 0 0
rtibia 0
rfoot 0 0
rtoes 0
lfemur -5.52793 -4.97371 -11.7734
ltibia 22.2572
lfoot -24.6109 17.9006
ltoes -53.6307
383
root -0.582524 18.7439 5.39637 3.08681 -6.09281 -2.75908
lowerback 5.21995 -1.2183 -2.46068
upperback 1.95251 -1.75236 -0.618175
thorax -0.862947 -0.881551 0.846668
lowerneck -15.1779 0.188442 4.06464
upperneck 33.6781 -1.58573 1.31405
head 14.0166 -0.032191 -0.451677
rclavicle -3.27995e-015 -3.97569e-015
rhumerus -17.45 45.7666 -89.3401
rradius 91.9854
rwrist 1.19032
rhand -5.61768 -59.9449
rfingers 7.12502
rthumb 20.1998 -448.915
lclavicle -3.27995e-015 -3.97569e-015
lhumerus 8.74554 -36.2379 48.5335
lradius 71.0266
lwrist 11.5384
lhand -1.64307 -41.7111
lfingers 7.12502
lthumb 24.0157 -13.1935
rfemur 0 0 0
rtibia 0
rfoot 0 0
rtoes 0
lfemur -5.76335 -4.98341 -11.9853
ltibia 22.2006
lfoot -24.3507 17.7741
ltoes -53.8208
384
root -0.599458 18.7454 5.39985 3.08646 -5.7753 -2.67751
lowerback 5.06059 -1.35322 -2.65804
upperback 2.03382 -1.9343 -0.609883
thorax -0.677623 -0.976004 0.969738
lowerneck -15.2901 0.222792 4.08322
upperneck 33.6464 -1.51533 1.22763
head 14.0269 -0.0111282 -0.478672
rclavicle -2.98177e-014 -7.15625e-015
rhumerus -16.5947 45.5882 -88.063
rradius 91.3529
rwrist 1.14499
rhand -5.13384 -59.0037
rfingers 7.12502
rthumb 20.6648 -447.924
lclavicle -2.98177e-014 -7.15625e-015
lhumerus 8.36544 -36.434 49.7029
lradius 70.9504
lwrist 11.527
lhand -1.40862 -41.291
lfingers 7.12502
lthumb 24.2405 -12.8032
rfemur 0 0 0
rtibia 0
rfoot 0 0
rtoes 0
lfemur -5.80627 -5.17814 -11.9758
ltibia 22.1276
lfoot -24.3403 17.5182
ltoes -53.5881
385
root -0.603211 18.7433 5.40389 2.95462 -5.50057 -2.69718
lowerback 5.08343 -1.46265 -2.54212
upperback 2.14841 -2.0733 -0.650742
thorax -0.573382 -1.04697 0.868921
lowerneck -15.3346 0.230575 4.10012
upperneck 33.5192 -1.50979 1.23728
head 13.9803 -0.00748013 -0.476843
rclavicle 3.47873e-015 -1.19271e-014
rhumerus -15.3365 45.4507 -86.3553
rradius 90.9188
rwrist 0.989182
rhand -4.51374 -57.6646
rfingers 7.12502
rthumb 21.2606 -446.519
lclavicle 3.47873e-015 -1.19271e-014
lhumerus 8.13634 -36.7035 50.7413
lradius 70.9868
lwrist 11.2626
lhand -1.39036 -40.8195
lfingers 7.12502
lthumb 24.258 -12.334
rfemur 0 0 0
rtibia 0
rfoot 0 0
rtoes 0
lfemur -5.69214 -5.4059 -11.9269
ltibia 22.1257
lfoot -24.4605 17.2857
ltoes -53.6061
386
root -0.597529 18.7406 5.40367 2.88652 -5.34622 -2.68163
lowerback 5.14417 -1.51718 -2.33008
upperback 2.23578 -2.13698 -0.735493
thorax -0.526614 -1.0785 0.667159
lowerneck -15.395 0.206942 4.06648
upperneck 33.3616 -1.55679 1.31164
head 13.9242 -0.0243482 -0.448693
rclavicle 4.64162e-014 -3.65764e-014
rhumerus -13.756 45.3155 -84.3062
rradius 90.6849
rwrist 1.19701
rhand -3.46399 -56.0464
rfingers 7.12502
rthumb 22.2686 -444.783
lclavicle 4.64162e-014 -3.65764e-014
lhumerus 8.12327 -36.9022 51.7369
lradius 71.1033
lwrist 10.8268
lhand -1.43691 -40.0488
lfingers 7.12502
lthumb 24.2134 -11.5574
rfemur 0 0 0
rtibia 0
rfoot 0 0
rtoes 0
lfemur -5.70232 -5.43988 -11.9743
ltibia 22.1383
lfoot -24.3038 17.3779
ltoes -53.5538
387
root -0.578907 18.7422 5.39147 2.99 -5.34633 -2.69235
lowerback 5.24503 -1.52169 -1.96334
upperback 2.22821 -2.12955 -0.822207
thorax -0.60789 -1.0716 0.376368
lowerneck -15.4658 0.161129 3.99262
upperneck 33.2692 -1.62973 1.39361
head 13.8994 -0.0550357 -0.414832
rclavicle 4.49253e-014 2.62396e-014
rhumerus -12.2092 45.1806 -82.1567
rradius 90.746
rwrist 1.99852
rhand -2.54136 -54.0774
rfingers 7.12502
rthumb 23.1541 -442.706
lclavicle 4.49253e-014 2.62396e-014
lhumerus 8.19586 -36.9402 52.7938
lradius 71.292
lwrist 10.4788
lhand -1.37591 -39.0857
lfingers 7.12502
lthumb 24.2718 -10.6022
rfemur 0 0 0
rtibia 0
rfoot 0 0
rtoes 0
lfemur -5.91689 -5.5046 -12.0367
ltibia 22.1446
lfoot -24.1233 17.6735
ltoes -53.9078
388
root -0.604862 18.7404 5.39423 2.79544 -5.24623 -2.6636
lowerback 5.3736 -1.49855 -2.34968
upperback 2.32806 -2.11869 -0.771287
thorax -0.5606 -1.06961 0.64576
lowerneck -15.396 0.0911871 3.88163
upperneck 33.2134 -1.74429 1.54342
head 13.8607 -0.099822 -0.353761
rclavicle -3.63776e-014 2.62396e-014
rhumerus -10.3005 45.0289 -79.658
rradius 90.8708
rwrist 2.78488
rhand -2.17441 -52.239
rfingers 7.12502
rthumb 23.5061 -440.823
lclavicle -3.63776e-014 2.62396e-014
lhumerus 8.16612 -36.8842 53.8675
lradius 71.6077
lwrist 10.1935
lhand -1.44859 -37.9848
lfingers 7.12502
lthumb 24.2022 -9.49198
rfemur 0 0 0
rtibia 0
rfoot 0 0
rtoes 0
lfemur -5.68646 -5.08213 -11.9222
ltibia 22.1111
lfoot -23.7729 17.2272
ltoes -54.1931
